# xmcd
#
# Track frame offsets:
#	150
#	17895
#	33687
#	48947
#	65297
#	80077
#	98075
#	113560
#	129795
#	146157
#	160592
#	181400
#
# Disc length: 2681 seconds
#
# Revision: 1
# Processed by: cddbd v1.5.1PL0 Copyright (c) Steve Scherf et al.
# Submitted via: CDex 1.50Beta5
#
DISCID=980a770c
DTITLE=憂歌団 - ブルース・バウンド
DYEAR=1995
DGENRE=
TTITLE0=みんな急げ
TTITLE1=情けねえ〜
TTITLE2=おれのオアシス
TTITLE3=風のうわさに
TTITLE4=ワーク・ソング
TTITLE5=September Moon
TTITLE6=あの橋の真ん中で
TTITLE7=マカオ夜曲
TTITLE8=Fuwa Fuwa
TTITLE9=言い出しかねて
TTITLE10=けだるい
TTITLE11=バイ・バイ・ベイビー
EXTD=
EXTT0=
EXTT1=
EXTT2=
EXTT3=
EXTT4=
EXTT5=
EXTT6=
EXTT7=
EXTT8=
EXTT9=
EXTT10=
EXTT11=
PLAYORDER=
